<?xml version="1.0" encoding="iso-8859-1"?>
<!-- Generator: Adobe Illustrator 19.0.0, SVG Export Plug-In . SVG Version: 6.00 Build 0)  -->
<svg version="1.1" id="Layer_1" xmlns="http://www.w3.org/2000/svg" xmlns:xlink="http://www.w3.org/1999/xlink" x="0px" y="0px"
	 viewBox="0 0 512 512" style="enable-background:new 0 0 512 512;" xml:space="preserve">
<g transform="translate(1 1)">
	<g>
		<path style="fill:#FFE100;" d="M264.387,84.333c-5.12,0-8.533-3.413-8.533-8.533v-9.387c-14.507-3.413-25.6-17.067-25.6-33.28
			C230.253,14.36,245.613-1,264.387-1c18.773,0,34.133,15.36,34.133,34.133c0,5.12-3.413,8.533-8.533,8.533
			s-8.533-3.413-8.533-8.533c0-9.387-7.68-17.067-17.067-17.067s-17.067,7.68-17.067,17.067S255,50.2,264.387,50.2
			c5.12,0,8.533,3.413,8.533,8.533V75.8C272.92,80.92,268.653,84.333,264.387,84.333z"/>
		<path style="fill:#FFE100;" d="M229.4,127.853c-2.56,0-5.973-1.707-6.827-4.267c-1.707-3.413-1.707-6.827,0.853-10.24
			l34.987-43.52c0.853-1.707,3.413-2.56,5.973-2.56l0,0c2.56,0,5.12,0.853,6.827,3.413l34.133,42.667
			c1.707,1.707,2.56,4.267,2.56,6.827c0,5.12-3.413,8.533-8.533,8.533l0,0c-0.853,0-1.707,0-1.707,0
			c-1.707,0-2.56-0.853-3.413-0.853h-58.88c-0.853,0-1.707,0-3.413,0.853C231.107,127.853,230.253,127.853,229.4,127.853z
			 M247.32,109.933h33.28l-16.213-20.48L247.32,109.933z"/>
		<path style="fill:#FFE100;" d="M101.4,203.8L7.533,323.267l59.733,42.667L127,334.36v168.107h256V334.36l59.733,31.573
			l59.733-42.667L408.6,203.8c0,0,3.413-18.773-76.8-42.667l-25.6-25.6l-11.947,26.453c-15.36,33.28-63.147,33.28-78.507,0
			L203.8,135.533l-25.6,25.6C97.987,185.027,101.4,203.8,101.4,203.8"/>
	</g>
	<path style="fill:#FDCC00;" d="M206.36,130.413l-2.56,5.12l11.947,26.453c15.36,33.28,63.147,33.28,78.507,0l11.947-26.453
		l-2.56-5.12c-3.413-6.827-11.093-11.947-18.773-11.947h-58.88C217.453,118.467,209.773,122.733,206.36,130.413"/>
	<path style="fill:#63D3FD;" d="M272.067,348.867h-34.133c-18.773,0-34.133-15.36-34.133-34.133l0,0
		c0-18.773,15.36-34.133,34.133-34.133h34.133c18.773,0,34.133,15.36,34.133,34.133l0,0
		C306.2,333.507,290.84,348.867,272.067,348.867"/>
	<path style="fill:#00DA6C;" d="M462.36,272.067L408.6,203.8c0,0,2.56-11.947-40.96-29.867
		c-11.093,11.947-18.773,29.013-18.773,46.933c0,37.547,30.72,68.267,68.267,68.267C434.2,289.133,450.413,282.307,462.36,272.067"
		/>
	<g>
		<path style="fill:#FFA800;" d="M365.933,358.253v144.213H383V352.28l-4.267-1.707C372.76,347.16,365.933,351.427,365.933,358.253"
			/>
		<path style="fill:#FFA800;" d="M502.467,323.267L408.6,203.8c0,0,3.413-18.773-76.8-42.667l-25.6-25.6l-7.68,17.92l16.213,16.213
			c80.213,23.893,76.8,42.667,76.8,42.667L485.4,331.8L502.467,323.267z"/>
	</g>
	<path style="fill:#00AD55;" d="M391.533,212.333l53.76,68.267c-1.707,1.707-4.267,3.413-6.827,5.12
		c8.533-2.56,17.067-7.68,23.893-13.653L408.6,203.8c0,0,2.56-12.8-40.96-29.867c-3.413,3.413-6.827,7.68-9.387,11.947
		C393.24,201.24,391.533,212.333,391.533,212.333"/>
	<g>
		<path style="fill:#00DA6C;" d="M47.64,272.067c11.947,10.24,28.16,17.067,45.227,17.067c37.547,0,68.267-30.72,68.267-68.267
			c0-17.92-6.827-34.987-18.773-46.933C98.84,191.853,101.4,203.8,101.4,203.8l0,0L47.64,272.067z"/>
		<path style="fill:#00DA6C;" d="M314.733,434.2c-37.547,0-68.267,30.72-68.267,68.267H383C383,464.92,352.28,434.2,314.733,434.2"
			/>
	</g>
	<polygon style="fill:#00AD55;" points="365.933,502.467 383,502.467 383,459.8 365.933,459.8 	"/>
	<g>
		<path style="fill:#FFFFFF;" d="M144.067,358.253v144.213H127V352.28l4.267-1.707C137.24,347.16,144.067,351.427,144.067,358.253"
			/>
		<path style="fill:#FFFFFF;" d="M7.533,323.267L101.4,203.8c0,0-3.413-18.773,76.8-42.667l25.6-25.6l7.68,17.92l-16.213,16.213
			c-80.213,23.893-76.8,42.667-76.8,42.667L24.6,331.8L7.533,323.267z"/>
	</g>
	<path d="M255,84.333c-5.12,0-8.533-3.413-8.533-8.533v-9.387c-14.507-3.413-25.6-17.067-25.6-33.28C220.867,14.36,236.227-1,255-1
		s34.133,15.36,34.133,34.133c0,5.12-3.413,8.533-8.533,8.533s-8.533-3.413-8.533-8.533c0-9.387-7.68-17.067-17.067-17.067
		s-17.067,7.68-17.067,17.067S245.613,50.2,255,50.2c5.12,0,8.533,3.413,8.533,8.533V75.8C263.533,80.92,260.12,84.333,255,84.333z"
		/>
	<path d="M383,511H127c-5.12,0-8.533-3.413-8.533-8.533v-153.6l-46.933,24.747c-2.56,1.707-5.973,0.853-8.533-0.853L3.267,330.093
		C0.707,329.24-1,326.68-1,324.12s0-4.267,1.707-6.827l92.16-116.907c1.707-10.24,17.067-27.307,81.067-46.933l23.893-23.893
		c1.707-1.707,5.12-2.56,7.68-2.56c2.56,0.853,5.12,2.56,5.973,5.12l11.947,26.453C229.4,170.52,241.347,178.2,255,178.2
		c13.653,0,25.6-7.68,31.573-20.48l11.947-26.453c0.853-2.56,3.413-4.267,5.973-5.12c2.56-0.853,5.973,0,7.68,2.56l23.893,23.893
		c64,19.627,78.507,36.693,81.067,46.933l92.16,116.907c1.707,1.707,1.707,4.267,1.707,6.827s-1.707,4.267-3.413,5.973
		l-59.733,42.667c-2.56,1.707-5.973,1.707-8.533,0.853l-47.787-23.893v153.6C391.533,507.587,388.12,511,383,511z M135.533,493.933
		h238.933V334.36c0-2.56,1.707-5.973,4.267-7.68s5.973-1.707,8.533,0l55.467,29.013l47.787-34.133l-88.747-112.64
		c-0.853-1.707-1.707-3.413-1.707-5.12c-0.853-1.707-9.387-16.213-70.827-34.987c-1.707,0-2.56-0.853-3.413-2.56l-17.067-17.067
		l-6.827,15.36C293.4,183.32,275.48,194.413,255,194.413s-38.4-11.093-46.933-29.867l-6.827-15.36l-17.067,17.067
		c-0.853,0.853-2.56,1.707-3.413,2.56c-61.44,18.773-69.973,32.427-70.827,34.987c0,1.707-0.853,4.267-2.56,5.973L19.48,321.56
		l47.787,34.133l55.467-29.013c2.56-1.707,5.973-0.853,8.533,0c2.56,1.707,4.267,4.267,4.267,7.68L135.533,493.933L135.533,493.933z
		"/>
	<path d="M255,195.267L255,195.267c-20.48,0-38.4-11.093-46.933-29.867l-11.947-26.453c-0.853-2.56-0.853-5.12,0-7.68l2.56-5.12
		c5.12-10.24,15.36-16.213,26.453-16.213h58.88c11.093,0,21.333,5.973,26.453,16.213l2.56,5.12c0.853,2.56,0.853,5.12,0,7.68
		L301.08,165.4C293.4,184.173,275.48,195.267,255,195.267z M213.187,135.533l10.24,22.187c5.973,12.8,17.92,20.48,31.573,20.48
		c13.653,0,25.6-7.68,31.573-20.48l10.24-22.187l-0.853-1.707c-2.56-4.267-6.827-6.827-11.093-6.827h-58.88
		c-5.12,0-9.387,2.56-11.093,6.827L213.187,135.533z"/>
	<path d="M306.2,263.533c-2.56,0-4.267-0.853-5.973-2.56l0,0c-2.56-2.56-3.413-5.973-1.707-9.387c1.707-3.413,4.267-5.12,7.68-5.12
		c2.56,0,5.973,1.707,7.68,4.267s1.707,5.973,0,8.533c-0.853,2.56-3.413,4.267-5.973,4.267
		C307.053,263.533,307.053,263.533,306.2,263.533z"/>
	<path d="M417.133,297.667c-42.667,0-76.8-34.133-76.8-76.8c0-19.627,7.68-38.4,21.333-52.907c2.56-2.56,5.973-3.413,9.387-1.707
		c34.987,14.507,44.373,26.453,46.08,34.987l52.053,66.56c2.56,3.413,2.56,8.533-0.853,11.947
		C453.827,290.84,435.907,297.667,417.133,297.667z M370.2,184.173c-8.533,10.24-12.8,23.04-12.8,36.693
		c0,33.28,26.453,59.733,59.733,59.733c11.947,0,23.04-3.413,33.28-10.24l-48.64-61.44c-0.853-1.707-1.707-3.413-1.707-5.12
		C399.213,202.947,394.947,195.267,370.2,184.173z"/>
	<path d="M92.867,297.667c-18.773,0-36.693-6.827-50.347-19.627c-3.413-3.413-4.267-8.533-0.853-11.947l52.053-66.56
		c1.707-7.68,11.093-20.48,46.08-34.987c3.413-1.707,6.827-0.853,9.387,1.707c13.653,14.507,21.333,33.28,21.333,52.907
		C169.667,263.533,135.533,297.667,92.867,297.667z M59.587,270.36c10.24,6.827,21.333,10.24,33.28,10.24
		c33.28,0,59.733-26.453,59.733-59.733c0-13.653-4.267-26.453-12.8-36.693c-24.747,11.093-29.013,18.773-29.867,19.627
		c0,1.707-0.853,3.413-1.707,5.12l0,0L59.587,270.36z"/>
	<path d="M383,511H246.467c-5.12,0-8.533-3.413-8.533-8.533c0-42.667,34.133-76.8,76.8-76.8s76.8,34.133,76.8,76.8
		C391.533,507.587,388.12,511,383,511z M255.853,493.933h118.613c-4.267-29.013-29.013-51.2-58.88-51.2
		S260.12,464.92,255.853,493.933z"/>
	<path d="M272.067,357.4h-34.133c-23.893,0-42.667-18.773-42.667-42.667s18.773-42.667,42.667-42.667h34.133
		c23.893,0,42.667,18.773,42.667,42.667S295.96,357.4,272.067,357.4z M237.933,289.133c-14.507,0-25.6,11.093-25.6,25.6
		s11.093,25.6,25.6,25.6h34.133c14.507,0,25.6-11.093,25.6-25.6s-11.093-25.6-25.6-25.6H237.933z"/>
	<path d="M263.533,323.267h-17.067c-5.12,0-8.533-3.413-8.533-8.533s3.413-8.533,8.533-8.533h17.067c5.12,0,8.533,3.413,8.533,8.533
		S268.653,323.267,263.533,323.267z"/>
	<path d="M220.013,127.853c-2.56,0-5.973-1.707-6.827-4.267c-1.707-3.413-1.707-6.827,0.853-10.24l34.987-43.52
		c0.853-1.707,3.413-2.56,5.973-2.56l0,0c2.56,0,5.12,0.853,6.827,3.413l34.133,42.667c1.707,1.707,2.56,4.267,2.56,6.827
		c0,5.12-3.413,8.533-8.533,8.533l0,0c-0.853,0-1.707,0-1.707,0c-1.707,0-2.56-0.853-3.413-0.853h-58.88
		c-0.853,0-1.707,0-3.413,0.853C221.72,127.853,220.867,127.853,220.013,127.853z M238.787,109.933h32.427L255,89.453
		L238.787,109.933z"/>
</g>
<g>
</g>
<g>
</g>
<g>
</g>
<g>
</g>
<g>
</g>
<g>
</g>
<g>
</g>
<g>
</g>
<g>
</g>
<g>
</g>
<g>
</g>
<g>
</g>
<g>
</g>
<g>
</g>
<g>
</g>
</svg>
