<?xml version="1.0" encoding="iso-8859-1"?>
<!-- Generator: Adobe Illustrator 19.0.0, SVG Export Plug-In . SVG Version: 6.00 Build 0)  -->
<svg version="1.1" id="Layer_1" xmlns="http://www.w3.org/2000/svg" xmlns:xlink="http://www.w3.org/1999/xlink" x="0px" y="0px"
	 viewBox="0 0 512.001 512.001" style="enable-background:new 0 0 512.001 512.001;" xml:space="preserve">
<polygon style="fill:#55D0FF;" points="73.532,248.455 73.532,281.136 29.958,292.029 29.958,237.561 "/>
<polygon style="fill:#AAE8FF;" points="40.851,237.561 40.851,292.029 8.171,281.136 8.171,248.455 "/>
<polygon style="fill:#55D0FF;" points="503.83,248.455 503.83,281.136 460.256,292.029 460.256,237.561 "/>
<polygon style="fill:#AAE8FF;" points="471.149,237.561 471.149,292.029 438.468,281.136 438.468,248.455 "/>
<polygon style="fill:#2E84FF;" points="503.83,281.136 503.83,313.816 460.256,324.71 471.149,281.136 "/>
<polygon style="fill:#00B9FF;" points="471.149,281.136 471.149,324.71 438.468,313.816 438.468,281.136 "/>
<polygon style="fill:#2E84FF;" points="73.532,281.136 73.532,313.816 29.958,324.71 40.851,281.136 "/>
<polygon style="fill:#00B9FF;" points="40.851,281.136 40.851,324.71 8.171,313.816 8.171,281.136 "/>
<path style="fill:#5B4FFF;" d="M447.042,115.967c-19.205-32.332-53.488-54.076-92.378-56.56
	c-22.495-23.367-51.407-40.067-83.63-47.681L256,8.174l-21.787,33.574l172.119,92.46l64.817,114.247h32.681v-32.681
	C503.83,173.844,481.411,136.381,447.042,115.967z"/>
<g>
	<path style="fill:#2E84FF;" d="M64.959,115.967c19.205-32.332,53.488-54.076,92.378-56.56
		c22.495-23.367,51.407-40.067,83.63-47.681L256,8.174v33.574L105.668,145.102L40.851,248.455H8.171v-32.681
		C8.171,173.844,30.59,136.381,64.959,115.967z"/>
	<path style="fill:#2E84FF;" d="M471.149,237.561v10.894h-32.681v-32.681c0-24.827-17.855-45.47-41.407-49.827
		c-4.368-23.563-25.001-41.407-49.827-41.407c-7.843,0-15.273,1.776-21.907,4.967C311.394,102.611,286.208,82.469,256,75.333
		l-10.894-16.793L256,41.748v1.776c30.469,7.201,64.795,24.467,83.935,48.64c2.418-0.207,4.848-0.305,7.299-0.305
		c33.062,0,62.257,19.402,75.634,48.27c28.879,13.377,48.281,42.583,48.281,75.645L471.149,237.561L471.149,237.561z"/>
</g>
<path style="fill:#00B9FF;" d="M256,41.748v33.585c-30.208,7.135-55.394,27.278-69.327,54.174
	c-6.634-3.192-14.064-4.967-21.907-4.967c-24.827,0-45.459,17.844-49.827,41.407c-23.552,4.357-41.407,25.001-41.407,49.827v32.681
	H40.851v-10.894v-21.787c0-33.062,19.402-62.268,48.281-75.645c13.377-28.868,42.572-48.27,75.634-48.27
	c2.451,0,4.88,0.098,7.299,0.305c19.14-24.173,53.466-41.439,83.935-48.64V41.748z"/>
<g>
	<polygon style="fill:#5B4FFF;" points="73.532,313.816 73.532,503.834 40.851,503.834 19.064,408.825 40.851,313.816 	"/>
	<polygon style="fill:#5B4FFF;" points="503.83,313.816 503.83,503.834 471.149,503.834 449.362,408.825 471.149,313.816 	"/>
</g>
<g>
	<rect x="8.171" y="313.813" style="fill:#2E84FF;" width="32.681" height="190.017"/>
	<rect x="438.468" y="313.813" style="fill:#2E84FF;" width="32.681" height="190.017"/>
</g>
<path style="fill:#F446AC;" d="M373.107,339.297v72.562h-54.468l21.787-113.936C359.163,302.356,373.107,319.187,373.107,339.297z"
	/>
<path style="fill:#F774C1;" d="M340.426,297.923v113.936h-54.468l21.787-72.562C307.745,319.187,321.689,302.356,340.426,297.923z"
	/>
<path style="fill:#F446AC;" d="M204.256,339.297l21.787,72.562h-76.255l21.787-113.936
	C190.312,302.356,204.256,319.187,204.256,339.297z"/>
<path style="fill:#F774C1;" d="M171.575,297.923v113.936h-32.681v-72.562C138.894,319.187,152.838,302.356,171.575,297.923z"/>
<path style="fill:#F997D1;" d="M256,248.452c-29.663,7.01-51.745,33.642-51.745,65.448v97.956h103.489v-97.956
	C307.745,282.093,285.664,255.462,256,248.452z"/>
<path style="fill:#55D0FF;" d="M256,313.813c-10.529,0-19.064,8.535-19.064,19.064v78.979h38.128v-78.979
	C275.064,322.348,266.529,313.813,256,313.813z"/>
<polygon style="fill:#FFD46E;" points="373.107,400.965 373.107,433.646 340.426,433.646 318.639,417.306 340.426,400.965 "/>
<rect x="138.894" y="400.962" style="fill:#FFE9B7;" width="201.532" height="32.681"/>
<path d="M452.986,110.02c-20.585-33.383-55.642-55.04-94.633-58.522c-23.507-23.58-52.982-40.055-85.442-47.726L257.878,0.22
	c-1.234-0.293-2.523-0.293-3.757,0l-15.033,3.552c-32.46,7.671-61.935,24.146-85.442,47.726
	c-38.99,3.482-74.048,25.138-94.633,58.522C22.558,132.516,0,172.84,0,215.771v288.06c0,4.512,3.657,8.17,8.17,8.17h65.362
	c4.513,0,8.17-3.658,8.17-8.17v-288.06c0-20.492,14.605-38.067,34.727-41.79c3.328-0.615,5.932-3.22,6.548-6.547
	c3.723-20.122,21.298-34.727,41.789-34.727c6.435,0,12.616,1.401,18.37,4.162c3.979,1.909,8.757,0.314,10.789-3.607
	c12.786-24.672,35.337-42.629,62.075-49.514c26.738,6.885,49.289,24.842,62.074,49.514c2.032,3.921,6.812,5.518,10.789,3.607
	c5.754-2.762,11.935-4.162,18.37-4.162c20.492,0,38.066,14.605,41.789,34.727c0.615,3.328,3.22,5.932,6.548,6.547
	c20.123,3.723,34.728,21.299,34.728,41.79v288.06c0,4.512,3.657,8.17,8.17,8.17h65.362c4.513,0,8.17-3.658,8.17-8.17v-288.06
	C512,172.84,489.443,132.516,452.986,110.02z M446.639,256.622h49.021v16.34h-49.021V256.622z M446.639,289.303h49.021v16.34
	h-49.021V289.303z M16.341,289.303h49.021v16.34H16.341V289.303z M65.362,272.962H16.341v-16.34h49.021V272.962z M16.341,495.66
	V321.983h49.021V495.66H16.341z M403.854,159.15c-7.084-25.09-30.086-42.784-56.62-42.784c-6.293,0-12.415,0.971-18.283,2.892
	C313.2,93.152,287.667,74.422,257.88,67.382c-1.234-0.293-2.523-0.293-3.757,0c-29.788,7.039-55.32,25.77-71.072,51.876
	c-5.867-1.922-11.99-2.892-18.283-2.892c-26.533,0-49.535,17.693-56.62,42.784c-25.092,7.084-42.786,30.087-42.786,56.621v24.511
	H16.341v-24.511c0-37.886,20.229-73.436,52.796-92.777c1.174-0.698,2.156-1.679,2.852-2.853
	c18.21-30.659,50.309-50.314,85.863-52.577c2.036-0.13,3.951-1.017,5.367-2.487c21.674-22.514,49.21-38.213,79.627-45.401
	L256,16.567l13.154,3.109c30.417,7.189,57.952,22.889,79.627,45.401c1.416,1.471,3.331,2.357,5.367,2.487
	c35.556,2.263,67.654,21.918,85.863,52.577c0.697,1.174,1.678,2.155,2.852,2.853c32.566,19.341,52.796,54.891,52.796,92.777v24.511
	h-49.021v-24.511C446.639,189.237,428.945,166.234,403.854,159.15z M446.639,495.66V321.983h49.021V495.66H446.639z"/>
<path d="M471.149,223.941c4.513,0,8.17-3.658,8.17-8.17c0-34.535-19.658-66.3-50.331-81.754
	c-15.456-30.673-47.221-50.331-81.754-50.331c-1.205,0-2.414,0.023-3.62,0.07c-20.14-23.939-47.754-40.979-78.218-48.178
	L257.88,33.8c-1.234-0.293-2.523-0.293-3.757,0l-7.517,1.777c-30.464,7.2-58.077,24.239-78.218,48.178
	c-1.206-0.047-2.415-0.07-3.62-0.07c-34.534,0-66.299,19.656-81.754,50.331c-30.674,15.455-50.332,47.219-50.332,81.754
	c0,4.512,3.657,8.17,8.17,8.17s8.17-3.658,8.17-8.17c0-29.189,17.091-55.969,43.543-68.225c1.755-0.814,3.165-2.223,3.977-3.978
	c12.256-26.451,39.035-43.542,68.225-43.542c2.205,0,4.426,0.095,6.598,0.282c2.73,0.24,5.404-0.917,7.107-3.069
	c18.064-22.821,43.595-39.071,71.89-45.759L256,50.147l5.639,1.332c28.296,6.688,53.826,22.939,71.89,45.759
	c1.704,2.153,4.385,3.309,7.107,3.069c2.172-0.187,4.392-0.282,6.598-0.282c29.189,0,55.968,17.091,68.225,43.542
	c0.813,1.755,2.222,3.166,3.977,3.978c26.452,12.256,43.543,39.036,43.543,68.226C462.979,220.283,466.637,223.941,471.149,223.941z
	"/>
<path d="M405.788,272.962c-4.513,0-8.17,3.658-8.17,8.17v128h-16.34v-69.84c0-23.61-16.026-43.889-38.97-49.316
	c-1.239-0.293-2.523-0.293-3.762,0c-9.101,2.153-17.106,6.648-23.462,12.754c-4.138-28.1-23.679-51.519-50.912-60.457v-10.162
	c0-4.512-3.657-8.17-8.17-8.17c-4.513,0-8.17,3.658-8.17,8.17v10.162c-27.234,8.939-46.774,32.358-50.912,60.457
	c-6.355-6.107-14.361-10.602-23.462-12.754c-1.239-0.293-2.523-0.293-3.762,0c-22.946,5.426-38.972,25.706-38.972,49.315v69.84
	h-16.34v-128c0-4.512-3.657-8.17-8.17-8.17c-4.513,0-8.17,3.658-8.17,8.17v136.17c0,4.512,3.657,8.17,8.17,8.17h24.511v8.17
	c0,4.512,3.657,8.17,8.17,8.17h24.511v24.511c0,4.512,3.657,8.17,8.17,8.17s8.17-3.658,8.17-8.17v-24.511h152.511v24.511
	c0,4.512,3.657,8.17,8.17,8.17c4.513,0,8.17-3.658,8.17-8.17v-24.511h24.511c4.513,0,8.17-3.658,8.17-8.17v-8.17h24.511
	c4.513,0,8.17-3.658,8.17-8.17v-136.17C413.958,276.62,410.301,272.962,405.788,272.962z M340.426,306.377
	c14.528,4.301,24.511,17.568,24.511,32.914v53.5h-49.021v-53.5C315.915,323.945,325.898,310.679,340.426,306.377z M212.426,313.899
	c0-26.88,17.82-50.055,43.574-57.02c25.755,6.965,43.574,30.14,43.574,57.02v78.893h-16.34v-59.915
	c0-15.017-12.217-27.234-27.234-27.234s-27.234,12.217-27.234,27.234v59.915h-16.34V313.899z M245.107,392.792v-59.915
	c0-6.007,4.887-10.894,10.894-10.894s10.894,4.887,10.894,10.894v59.915H245.107z M171.575,306.377
	c14.528,4.301,24.511,17.568,24.511,32.914v53.5h-49.021v-53.5C147.064,323.945,157.047,310.679,171.575,306.377z M364.937,425.473
	H147.064v-16.34h217.872V425.473z"/>
<g>
</g>
<g>
</g>
<g>
</g>
<g>
</g>
<g>
</g>
<g>
</g>
<g>
</g>
<g>
</g>
<g>
</g>
<g>
</g>
<g>
</g>
<g>
</g>
<g>
</g>
<g>
</g>
<g>
</g>
</svg>
